<svg width="100%" height="100%" id="svg" viewBox="0 0 1440 490" xmlns="http://www.w3.org/2000/svg" class="transition duration-300 ease-in-out delay-150"><defs><linearGradient id="gradient" x1="50%" y1="0%" x2="50%" y2="100%"><stop offset="5%" stop-color="#8ed1fc"></stop><stop offset="95%" stop-color="#f7fcff"></stop></linearGradient></defs><path d="M 0,500 C 0,500 0,125 0,125 C 65.73823428375127,138.15218138096873 131.47646856750254,151.30436276193748 208,162 C 284.52353143249746,172.69563723806252 371.8323600137411,180.9347303332188 443,165 C 514.1676399862589,149.0652696667812 569.1940913775335,108.95671590518722 627,87 C 684.8059086224665,65.04328409481278 745.3912744761251,61.238406046032296 808,86 C 870.6087255238749,110.7615939539677 935.2408107179663,164.08965991068362 1003,168 C 1070.7591892820337,171.91034008931638 1141.6454826520096,126.40295431123326 1215,111 C 1288.3545173479904,95.59704568876674 1364.1772586739953,110.29852284438337 1440,125 C 1440,125 1440,500 1440,500 Z" stroke="none" stroke-width="0" fill="url(#gradient)" fill-opacity="0.4" class="transition-all duration-300 ease-in-out delay-150 path-0"></path><defs><linearGradient id="gradient" x1="50%" y1="0%" x2="50%" y2="100%"><stop offset="5%" stop-color="#8ed1fc"></stop><stop offset="95%" stop-color="#f7fcff"></stop></linearGradient></defs><path d="M 0,500 C 0,500 0,250 0,250 C 44.19924424596357,250.90278254895225 88.39848849192714,251.8055650979045 169,239 C 249.60151150807286,226.1944349020955 366.605290278255,199.68052215733428 446,218 C 525.394709721745,236.31947784266572 567.1803503950533,299.4723462727585 623,294 C 678.8196496049467,288.5276537272415 748.673308141532,214.4300927516317 827,210 C 905.326691858468,205.5699072483683 992.1264170388183,270.8072827207146 1064,295 C 1135.8735829611817,319.1927172792854 1192.8210237031947,302.3407763655101 1253,288 C 1313.1789762968053,273.6592236344899 1376.5894881484028,261.82961181724494 1440,250 C 1440,250 1440,500 1440,500 Z" stroke="none" stroke-width="0" fill="url(#gradient)" fill-opacity="0.53" class="transition-all duration-300 ease-in-out delay-150 path-1"></path><defs><linearGradient id="gradient" x1="50%" y1="0%" x2="50%" y2="100%"><stop offset="5%" stop-color="#8ed1fc"></stop><stop offset="95%" stop-color="#f7fcff"></stop></linearGradient></defs><path d="M 0,500 C 0,500 0,375 0,375 C 48.31260735142564,381.8017863277224 96.62521470285128,388.6035726554449 174,388 C 251.37478529714872,387.3964273445551 357.8117485400206,379.38749570594297 434,379 C 510.1882514599794,378.61250429405703 556.1277911370663,385.8464445207833 610,397 C 663.8722088629337,408.1535554792167 725.6770869117142,423.2267262109241 793,406 C 860.3229130882858,388.7732737890759 933.1638612160768,339.2466506355205 1008,337 C 1082.8361387839232,334.7533493644795 1159.667468223978,379.78667124699416 1232,394 C 1304.332531776022,408.21332875300584 1372.166265888011,391.6066643765029 1440,375 C 1440,375 1440,500 1440,500 Z" stroke="none" stroke-width="0" fill="url(#gradient)" fill-opacity="1" class="transition-all duration-300 ease-in-out delay-150 path-2"></path></svg>
